HIERARCHY
ROOT Hips
{
    OFFSET 0.000000 0.000000 0.000000
    CHANNELS 6 Xposition Yposition Zposition Zrotation Xrotation Yrotation
    JOINT Spine
    {
        OFFSET -0.000000 14.517291 0.000000
        CHANNELS 3 Zrotation Xrotation Yrotation
        JOINT Spine1
        {
            OFFSET -0.000000 37.558300 0.000000
            CHANNELS 3 Zrotation Xrotation Yrotation
            JOINT Neck
            {
                OFFSET -0.000000 37.404057 3.400369
                CHANNELS 3 Zrotation Xrotation Yrotation
                JOINT Head
                {
                    OFFSET -0.000000 24.785618 -3.540803
                    CHANNELS 3 Zrotation Xrotation Yrotation
                    End Site
                    {
                        OFFSET -0.000000 35.408028 0.000000
                    }
                }
            }
            JOINT LeftShoulder
            {
                OFFSET 6.992933 33.973492 -0.192664
                CHANNELS 3 Zrotation Xrotation Yrotation
                JOINT LeftArm
                {
                    OFFSET 21.527611 0.000000 0.000000
                    CHANNELS 3 Zrotation Xrotation Yrotation
                    JOINT LeftForeArm
                    {
                        OFFSET 56.353916 0.000000 0.000000
                        CHANNELS 3 Zrotation Xrotation Yrotation
                        JOINT LeftHand
                        {
                            OFFSET 47.774071 0.000000 0.000000
                            CHANNELS 3 Zrotation Xrotation Yrotation
                            End Site
                            {
                                OFFSET 26.556021 0.000000 0.000000
                            }
                        }
                    }
                }
            }
            JOINT RightShoulder
            {
                OFFSET -7.065357 33.973492 -0.192664
                CHANNELS 3 Zrotation Xrotation Yrotation
                JOINT RightArm
                {
                    OFFSET -21.527611 0.000000 0.000000
                    CHANNELS 3 Zrotation Xrotation Yrotation
                    JOINT RightForeArm
                    {
                        OFFSET -56.353916 0.000000 0.000000
                        CHANNELS 3 Zrotation Xrotation Yrotation
                        JOINT RightHand
                        {
                            OFFSET -47.774071 0.000000 0.000000
                            CHANNELS 3 Zrotation Xrotation Yrotation
                            End Site
                            {
                                OFFSET -26.556021 0.000000 0.000000
                            }
                        }
                    }
                }
            }
        }
    }
    JOINT LeftUpLeg
    {
        OFFSET 17.704014 0.000000 0.000000
        CHANNELS 3 Zrotation Xrotation Yrotation
        JOINT LeftLeg
        {
            OFFSET -0.000000 -81.181816 0.000000
            CHANNELS 3 Zrotation Xrotation Yrotation
            JOINT LeftFoot
            {
                OFFSET -0.000000 -62.821102 0.000000
                CHANNELS 3 Zrotation Xrotation Yrotation
                JOINT LeftToeBase
                {
                    OFFSET -0.000000 -11.507608 26.556021
                    CHANNELS 3 Zrotation Xrotation Yrotation
                    End Site
                    {
                        OFFSET -0.000000 0.000000 7.081605
                    }
                }
            }
        }
    }
    JOINT RightUpLeg
    {
        OFFSET -17.704014 0.000000 0.000000
        CHANNELS 3 Zrotation Xrotation Yrotation
        JOINT RightLeg
        {
            OFFSET -0.000000 -81.181816 0.000000
            CHANNELS 3 Zrotation Xrotation Yrotation
            JOINT RightFoot
            {
                OFFSET -0.000000 -62.821102 0.000000
                CHANNELS 3 Zrotation Xrotation Yrotation
                JOINT RightToeBase
                {
                    OFFSET -0.000000 -11.507608 26.556021
                    CHANNELS 3 Zrotation Xrotation Yrotation
                    End Site
                    {
                        OFFSET -0.000000 0.000000 7.081605
                    }
                }
            }
        }
    }
}
MOTION
Frames:    9
Frame Time:    0.008333
-1.332635    153.275177    -119.039215    -3.633409    -1.002444    33.648876    0.716614    1.798974    -0.756678    -7.243821    -1.984481    -0.372591    6.921363    -3.365557    -17.523525    12.530577    4.298371    -18.233898    9.843517    5.793653    -17.611109    -31.501225    23.528410    -53.010891    -6.178751    -11.191845    -113.669724    1.672074    -20.406189    -6.900023    -11.812864    -4.949724    -3.947421    21.215382    -22.012474    54.568974    -18.847084    -18.675558    35.965599    2.500862    -12.017521    32.504292    18.056234    -5.260322    1.243893    -13.750056    38.492046    -18.343561    6.356205    -29.621960    44.671722    0.000000    0.000000    0.000000    -15.969132    -29.247719    -19.439970    16.286890    32.175301    -16.606344    0.444924    5.230751    -3.898589    0.000000    0.000000    0.000000    
-1.611819    153.340286    -119.038483    -3.782325    -1.186838    33.751652    0.561953    1.836117    -0.778909    -7.372044    -1.909208    -0.377842    6.509177    -3.374884    -17.559223    13.103484    4.461175    -18.159330    9.677324    5.760840    -17.625734    -31.345263    23.580751    -52.943626    -6.189170    -11.208736    -113.686394    1.569925    -20.435316    -6.956003    -11.934928    -4.903792    -3.826090    21.265152    -21.848177    54.581192    -19.078569    -18.823536    35.850998    2.504498    -12.117023    32.392029    18.376390    -5.284585    1.281226    -13.666169    38.478218    -18.454056    6.237400    -29.577492    44.585594    0.000000    0.000000    0.000000    -15.580709    -29.126017    -19.364084    16.156588    31.944090    -16.574030    0.431972    5.401670    -3.990858    0.000000    0.000000    0.000000    
-1.886913    153.403275    -119.047951    -3.955598    -1.366184    33.864113    0.125303    1.803760    -1.323820    -5.822990    -1.641996    -0.522404    3.416985    -3.602821    -17.628139    14.774803    5.245036    -17.617737    7.432747    5.365102    -16.621775    -30.318832    24.150444    -52.443893    -6.094158    -11.658218    -114.267670    1.520421    -20.821230    -6.859710    -14.444748    -4.713903    -3.427751    22.614933    -21.731808    55.346600    -19.721899    -19.087469    35.610973    2.684761    -12.176453    32.283852    18.700901    -5.350313    1.324707    -13.544881    38.516335    -18.740515    6.186205    -29.547907    44.659901    0.000000    0.000000    0.000000    -15.191094    -29.016285    -19.258760    16.061283    31.690117    -16.605742    0.396741    5.594596    -4.056737    0.000000    0.000000    0.000000    
-2.142707    153.455566    -119.063187    -4.114015    -1.544442    33.983181    0.112531    1.830009    -1.313708    -6.168081    -1.552367    -0.519162    3.356538    -3.582759    -17.567801    14.930810    5.227756    -17.526075    7.403075    5.323025    -16.605120    -30.240250    24.114002    -52.419003    -6.100811    -11.524375    -114.264603    1.526927    -20.703445    -6.889642    -14.448059    -4.700481    -3.325511    22.499483    -21.473484    55.235931    -20.054012    -19.332340    35.481010    2.740872    -12.335868    32.093632    18.997828    -5.413215    1.337250    -13.428836    38.552406    -18.881868    6.100507    -29.531019    44.610783    0.000000    0.000000    0.000000    -14.780907    -28.950968    -19.316822    15.731293    31.570805    -16.591160    0.455606    5.768003    -3.954579    0.000000    0.000000    0.000000    
-2.393322    153.504349    -119.081963    -4.257978    -1.724939    34.082542    0.392382    1.904332    -0.681688    -8.272532    -1.601172    -0.339022    6.424965    -3.220219    -17.652111    13.489226    4.365596    -18.183710    9.697272    5.723129    -17.611916    -30.979254    23.612703    -53.135551    -6.158257    -11.149811    -113.599075    1.447373    -20.313410    -7.050812    -11.914365    -4.771338    -3.657060    21.032871    -21.270506    54.334877    -19.807711    -19.509718    35.537857    2.812739    -12.557324    32.509319    19.292706    -5.464385    1.322584    -13.379259    38.584335    -18.983004    6.045753    -29.496672    44.610542    0.000000    0.000000    0.000000    -14.431625    -28.833374    -19.204311    15.653124    31.345419    -16.599684    0.456627    5.919631    -4.045877    0.000000    0.000000    0.000000    
-2.629171    153.541183    -119.105865    -4.399551    -1.901917    34.196892    -0.039296    1.909070    -1.166731    -6.639643    -1.405913    -0.468852    3.117317    -3.504173    -17.743994    15.313968    5.291028    -17.638844    7.305628    5.300245    -16.676500    -30.059809    24.110607    -52.466267    -6.171851    -11.348869    -114.232468    1.507172    -20.634300    -6.988642    -14.503471    -4.415043    -3.166514    22.209995    -21.273399    54.908318    -20.482492    -19.841722    35.385918    2.937089    -12.689929    32.041351    19.576876    -5.535031    1.283811    -13.338168    38.646530    -19.088331    5.988879    -29.499287    44.623817    0.000000    0.000000    0.000000    -14.109785    -28.704563    -19.156872    15.574087    31.125534    -16.583712    0.458943    6.046421    -4.124913    0.000000    0.000000    0.000000    
-2.836548    153.571640    -119.129196    -4.530398    -2.084703    34.284103    -0.350832    1.620413    -0.867108    -6.604175    -1.025854    -0.348216    3.355882    -2.921795    -17.866505    15.258243    4.706391    -17.720245    7.312527    5.438764    -17.417208    -30.181885    23.811935    -52.232380    -6.147554    -11.340237    -113.991470    1.381838    -20.543980    -7.142145    -14.280252    -4.301277    -2.804435    21.531301    -21.206568    54.211128    -20.747847    -20.131609    35.140678    3.069330    -12.910930    32.237930    19.846508    -5.575778    1.249903    -13.313389    38.699112    -19.147369    5.957099    -29.501440    44.629532    0.000000    0.000000    0.000000    -13.793736    -28.568605    -19.093102    15.495806    30.915073    -16.581659    0.476960    6.158459    -4.164419    0.000000    0.000000    0.000000    
-3.028919    153.600998    -119.154373    -4.658296    -2.273019    34.365818    -0.311898    1.615578    -0.742357    -6.924592    -0.852462    -0.298956    3.091532    -2.961813    -17.956663    15.677090    4.804509    -17.742662    7.243024    5.386803    -17.418182    -30.098822    23.794117    -52.238792    -6.231290    -11.228771    -114.027344    1.315995    -20.562090    -7.170714    -14.390187    -4.329450    -2.823228    21.487606    -20.951206    54.108555    -21.073730    -20.337765    34.962559    3.285970    -12.991697    32.355782    20.109173    -5.606782    1.226448    -13.268308    38.757076    -19.233583    5.936442    -29.505949    44.636738    0.000000    0.000000    0.000000    -13.482529    -28.418226    -19.022631    15.437164    30.691416    -16.581293    0.472751    6.274331    -4.235650    0.000000    0.000000    0.000000    
-3.213097    153.625992    -119.190468    -4.771885    -2.447300    34.434322    0.318092    2.038505    -0.203453    -9.320204    -1.212926    -0.162629    5.958179    -3.217056    -18.074324    13.999770    4.571735    -18.518385    9.382915    5.610920    -17.708744    -30.762728    23.568296    -53.117203    -6.349104    -10.627873    -113.628555    1.357126    -20.092426    -7.148753    -12.108661    -4.439459    -3.524219    20.450550    -20.530531    53.804104    -21.085115    -20.518408    34.946629    3.318925    -13.167156    32.440102    20.350328    -5.640704    1.223421    -13.225070    38.826927    -19.315920    5.895470    -29.528059    44.635612    0.000000    0.000000    0.000000    -13.187959    -28.288988    -19.008722    15.317635    30.505836    -16.525925    0.492784    6.380639    -4.255744    0.000000    0.000000    0.000000    
